<?xml version="1.0" standalone="no"?><!DOCTYPE svg PUBLIC "-//W3C//DTD SVG 1.1//EN" "http://www.w3.org/Graphics/SVG/1.1/DTD/svg11.dtd"><svg t="1601170063992" class="icon" viewBox="0 0 1024 1024" version="1.1" xmlns="http://www.w3.org/2000/svg" p-id="3125" xmlns:xlink="http://www.w3.org/1999/xlink" width="16" height="16"><defs><style type="text/css"></style></defs><path d="M886 572.2c-23.1 0-41.7 18.7-41.7 41.7v185.6H180.9V614c0-23.1-18.7-41.7-41.7-41.7-23.1 0-41.7 18.7-41.7 41.7v227.4c0 23.1 18.7 41.7 41.8 41.7H886c23.1 0 41.7-18.7 41.7-41.7V614c0-23.1-18.7-41.8-41.7-41.8z" fill="#3F9EFF" p-id="3126"></path><path d="M482.7 666.3c7.9 8 18.6 12.5 29.8 12.5s22-4.5 29.8-12.5l166.6-170.1c16.1-16.5 15.9-42.9-0.6-59s-42.9-15.9-59 0.6l-95 97V173.3c0-23.1-18.7-41.7-41.7-41.7s-41.7 18.7-41.7 41.7v361.5l-95-97c-16.1-16.5-42.6-16.7-59-0.6-16.5 16.1-16.7 42.6-0.6 59l166.4 170.1z" fill="#3F9EFF" p-id="3127"></path></svg>