<?xml version="1.0" standalone="no"?><!DOCTYPE svg PUBLIC "-//W3C//DTD SVG 1.1//EN" "http://www.w3.org/Graphics/SVG/1.1/DTD/svg11.dtd"><svg t="1584772071569" class="icon" viewBox="0 0 1024 1024" version="1.1" xmlns="http://www.w3.org/2000/svg" p-id="2635" xmlns:xlink="http://www.w3.org/1999/xlink" width="16" height="16"><defs><style type="text/css"></style></defs><path d="M512.347 810.2c-176.5 0-336.4-99.9-479.5-299.7 143.1-199.8 303-299.7 479.5-299.7s336.4 99.9 479.5 299.7c-143.1 199.8-303 299.7-479.5 299.7z m0-89.2c111.6 0 202.1-94.3 202.1-210.5s-90.5-210.5-202.1-210.5-202.1 94.3-202.1 210.5 90.5 210.5 202.1 210.5z" fill="#1296db" p-id="2636"></path><path d="M386.075 510.462a131.6 126.3 90 1 0 252.6 0 131.6 126.3 90 1 0-252.6 0Z" fill="#1296db" p-id="2637"></path><path d="M512.375 621.862c59.4 0 107.4-50 107.4-111.4 0-6.1-4.9-11-11-11s-11 4.9-11 11c0 49.5-38.3 89.4-85.3 89.4-6.1 0-11 4.9-11 11s4.8 11 10.9 11z" fill="#1296db" p-id="2638"></path></svg>