<?xml version="1.0" standalone="no"?><!DOCTYPE svg PUBLIC "-//W3C//DTD SVG 1.1//EN" "http://www.w3.org/Graphics/SVG/1.1/DTD/svg11.dtd"><svg t="1584772804567" class="icon" viewBox="0 0 1024 1024" version="1.1" xmlns="http://www.w3.org/2000/svg" p-id="4035" xmlns:xlink="http://www.w3.org/1999/xlink" width="16" height="16"><defs><style type="text/css"></style></defs><path d="M894.100037 191.592865H127.728577v574.778596h669.744792l96.626668 49.175502V191.592865z m127.728577 0v832.407135L766.818511 894.100037H127.728577a127.728577 127.728577 0 0 1-127.728577-127.728576V191.592865a127.728577 127.728577 0 0 1 127.728577-127.728577h766.37146a127.728577 127.728577 0 0 1 127.728577 127.728577z" fill="#1296db" p-id="4036"></path><path d="M670.575028 478.982163m-95.796433 0a95.796433 95.796433 0 1 0 191.592866 0 95.796433 95.796433 0 1 0-191.592866 0Z" fill="#1296db" p-id="4037"></path><path d="M351.253586 478.982163m-95.796432 0a95.796433 95.796433 0 1 0 191.592865 0 95.796433 95.796433 0 1 0-191.592865 0Z" fill="#1296db" p-id="4038"></path></svg>